<?xml version="1.0" standalone="no"?>
<!DOCTYPE svg PUBLIC "-//W3C//DTD SVG 20010904//EN"
 "http://www.w3.org/TR/2001/REC-SVG-20010904/DTD/svg10.dtd">
<svg version="1.0" xmlns="http://www.w3.org/2000/svg"
 width="512.000000pt" height="512.000000pt" viewBox="0 0 512.000000 512.000000"
 preserveAspectRatio="xMidYMid meet">

<g transform="translate(0.000000,512.000000) scale(0.100000,-0.100000)"
fill="#000000" stroke="none">
<path d="M1801 4665 c-246 -87 -464 -214 -669 -390 -136 -117 -156 -143 -156
-205 0 -37 9 -62 41 -116 63 -107 78 -161 78 -290 0 -107 -1 -112 -37 -186
-65 -131 -202 -237 -346 -267 -29 -6 -89 -11 -133 -11 -125 0 -172 -37 -204
-160 -66 -254 -72 -619 -14 -905 24 -122 43 -162 89 -193 32 -22 42 -24 122
-19 164 10 294 -37 394 -145 156 -170 179 -404 59 -599 -93 -151 -72 -196 191
-395 202 -152 418 -268 642 -343 111 -37 134 -38 192 -8 36 18 52 35 80 87 44
81 148 189 217 224 199 100 428 62 581 -98 33 -34 71 -84 85 -111 14 -28 39
-63 56 -80 27 -25 41 -30 97 -33 56 -4 79 1 172 34 226 80 495 236 696 405
103 86 132 122 142 178 6 28 -2 50 -45 132 -59 114 -81 188 -81 274 0 269 225
475 518 475 133 0 176 35 210 172 37 148 47 246 47 448 -1 208 -3 221 -66 460
-50 188 -75 208 -265 214 -130 3 -193 24 -284 92 -62 47 -132 142 -165 224
-10 26 -20 84 -22 135 -7 113 13 195 68 286 80 132 75 174 -33 273 -205 191
-485 356 -757 446 -101 34 -132 41 -167 35 -57 -8 -96 -42 -136 -118 -18 -34
-60 -89 -93 -122 -238 -238 -624 -173 -789 133 -69 127 -116 137 -315 67z
m1167 -1342 c15 -11 36 -35 46 -53 42 -71 45 -62 -317 -787 -370 -739 -354
-714 -451 -720 -43 -3 -57 1 -91 25 -47 33 -72 90 -61 142 4 19 159 337 344
705 376 748 359 721 455 712 27 -2 61 -13 75 -24z m-1141 -139 c67 -32 103
-105 88 -181 -6 -32 -37 -69 -208 -240 l-201 -203 201 -203 c216 -217 224
-229 209 -313 -9 -47 -73 -111 -120 -120 -87 -16 -90 -14 -388 284 -239 239
-277 282 -283 314 -17 89 -14 92 272 380 147 147 280 274 297 282 41 20 90 20
133 0z m1597 1 c18 -9 152 -136 298 -283 287 -288 290 -291 273 -379 -6 -33
-44 -76 -283 -315 -298 -298 -301 -300 -388 -284 -47 9 -111 73 -120 120 -15
84 -7 96 209 313 l201 203 -201 203 c-171 171 -202 208 -208 240 -25 131 103
237 219 182z"/>
</g>
</svg>
